<?xml version="1.0" encoding="UTF-8"?>
<svg id="Camada_1" data-name="Camada 1" xmlns="http://www.w3.org/2000/svg" viewBox="0 0 205.22 255.86">
  <path d="M119.58,145.01c.87.22,1-.36,1.5-.75,11.55-8.85,22.22-24.66,33.44-33.96,4.16-3.44,8.24-5.29,13.45-2.46,2.73,1.48,13.81,12.7,14.4,15.56.68,3.31.19,7.47-2.37,9.88l-70.89,70.9c-2.93,2.38-7,2.99-10.49,1.48-25.45-23.11-48.94-48.63-73.65-72.64-2.6-3.2-3.08-8.03-1.16-11.66,1.33-2.52,10.42-11.52,12.94-13.02,5.13-3.04,8.98-2.12,13.44,1.45l35.44,35.21V8.45c0-2.71,4.6-7.02,7.21-7.76,2.94-.83,15.66-.9,18.77-.25,2.83.58,7.96,4.5,7.96,7.52v137.06Z"/>
  <path d="M8.12,222.03l188.55-.08c3.65.66,7.06,3.37,7.94,7.04.73,3.05.77,15.29.3,18.59-.6,4.21-5.04,7.84-9.19,8.28l-186.67-.05c-4.64-.94-8.35-4.35-8.8-9.17-.33-3.47-.43-14.59.36-17.65.88-3.39,4.2-6.18,7.52-6.96Z"/>
</svg>